<?xml version="1.0" encoding="UTF-8" standalone="no"?>
<!DOCTYPE svg PUBLIC "-//W3C//DTD SVG 1.1//EN" "http://www.w3.org/Graphics/SVG/1.1/DTD/svg11.dtd">
<svg width="100%" height="100%" viewBox="0 0 90 67" version="1.1" xmlns="http://www.w3.org/2000/svg" xmlns:xlink="http://www.w3.org/1999/xlink" xml:space="preserve" xmlns:serif="http://www.serif.com/" style="fill-rule:evenodd;clip-rule:evenodd;stroke-linejoin:round;stroke-miterlimit:2;">
    <g transform="matrix(1,0,0,1,-108.427,-138.086)">
        <g transform="matrix(1,0,0,1,-29.662,0)">
            <path d="M200.6,159.064L192.15,173.83C191.82,174.244 191.347,174.52 190.825,174.603L173.93,174.603C173.407,174.52 172.934,174.244 172.604,173.83L164.157,159.064C163.967,158.566 163.967,158.016 164.157,157.518L172.604,142.751C172.934,142.337 173.407,142.062 173.93,141.979L190.824,141.979C191.346,142.062 191.819,142.338 192.149,142.751L200.596,157.518C200.786,158.016 200.786,158.566 200.596,159.064M204.204,156.04L195.222,140.34C194.368,139.017 192.931,138.18 191.359,138.088L173.4,138.088C171.828,138.179 170.391,139.017 169.537,140.34L160.555,156.04C159.848,157.455 159.848,159.125 160.555,160.54L169.537,176.24C170.389,177.566 171.827,178.407 173.4,178.5L191.36,178.5C192.932,178.409 194.369,177.571 195.223,176.249L204.205,160.549C204.912,159.133 204.912,157.465 204.205,156.049" style="fill:rgb(118,187,138);fill-rule:nonzero;"/>
        </g>
        <g transform="matrix(1,0,0,1,139.367,158.554)">
            <rect x="0" y="0" width="13.348" height="2.859" style="fill:rgb(118,187,138);"/>
        </g>
        <g transform="matrix(1,0,0,1,141.984,163.682)">
            <rect x="0" y="0" width="10.731" height="2.86" style="fill:rgb(118,187,138);"/>
        </g>
        <g transform="matrix(1,0,0,1,144.601,168.81)">
            <rect x="0" y="0" width="8.113" height="2.86" style="fill:rgb(118,187,138);"/>
        </g>
        <g transform="matrix(1,0,0,1,0,-66.292)">
            <path d="M120.817,261C122.419,263.753 123.858,266.597 125.127,269.518C125.171,269.594 125.194,269.68 125.194,269.767C125.194,269.984 125.054,270.176 124.848,270.243L124.048,270.585C123.976,270.625 123.896,270.646 123.814,270.646C123.595,270.646 123.403,270.497 123.348,270.285C122.146,267.404 120.78,264.593 119.258,261.867C119.194,261.782 119.159,261.679 119.159,261.572C119.159,261.376 119.277,261.199 119.458,261.123L120.096,260.78C120.176,260.726 120.27,260.698 120.366,260.698C120.563,260.698 120.741,260.818 120.814,261.001M114.57,261.786C113.641,264.811 112.269,267.682 110.5,270.305C110.412,270.465 110.244,270.565 110.061,270.565C109.953,270.565 109.848,270.531 109.762,270.466L109.144,270.124C108.965,270.054 108.847,269.88 108.847,269.688C108.847,269.575 108.889,269.464 108.964,269.379C110.576,266.825 111.825,264.06 112.675,261.163C112.71,260.936 112.907,260.767 113.137,260.767C113.212,260.767 113.287,260.786 113.354,260.821L114.231,261.121C114.452,261.167 114.612,261.364 114.612,261.59C114.612,261.657 114.597,261.724 114.57,261.785M125.463,257.678L125.463,257.718C125.466,257.741 125.468,257.765 125.468,257.789C125.468,258.051 125.252,258.267 124.99,258.267C124.968,258.267 124.946,258.265 124.924,258.262L108.966,258.262C108.944,258.265 108.923,258.266 108.901,258.266C108.638,258.266 108.422,258.05 108.422,257.787C108.422,257.764 108.424,257.741 108.427,257.718L108.427,257.678C108.424,257.655 108.422,257.632 108.422,257.609C108.422,257.346 108.638,257.13 108.901,257.13C108.923,257.13 108.944,257.131 108.966,257.134L115.929,257.134L115.929,253.934C115.926,253.911 115.924,253.887 115.924,253.863C115.924,253.601 116.14,253.385 116.402,253.385C116.424,253.385 116.446,253.387 116.468,253.39L117.426,253.39C117.448,253.387 117.47,253.385 117.492,253.385C117.754,253.385 117.97,253.601 117.97,253.863C117.97,253.887 117.968,253.911 117.965,253.934L117.965,257.134L124.928,257.134C124.95,257.131 124.972,257.129 124.994,257.129C125.256,257.129 125.472,257.345 125.472,257.607C125.472,257.631 125.47,257.655 125.467,257.678" style="fill:rgb(118,187,138);fill-rule:nonzero;"/>
        </g>
        <g transform="matrix(1,0,0,1,-32.196,-65.507)">
            <path d="M174.281,264.584L178.95,264.584L178.95,261.584L174.281,261.584L174.281,264.584ZM174.281,260.617L178.95,260.617L178.95,257.758L174.281,257.758L174.281,260.617ZM168.356,256.731L172.925,256.731C173.693,256.015 174.419,255.255 175.099,254.455L169.972,254.455C169.49,255.252 168.95,256.013 168.356,256.731M168.256,260.617L172.326,260.617L172.326,257.758L168.256,257.758L168.256,260.617ZM168.056,264.584L172.326,264.584L172.326,261.584L168.256,261.584C168.244,262.587 168.177,263.588 168.056,264.584M170.81,252.865C170.73,253.026 170.651,253.227 170.53,253.465L176.555,253.465C176.577,253.462 176.599,253.46 176.621,253.46C176.883,253.46 177.099,253.676 177.099,253.938C177.099,253.962 177.097,253.986 177.094,254.009L177.094,254.049C177.104,254.296 177.027,254.538 176.875,254.733C176.282,255.435 175.647,256.101 174.975,256.727L180.381,256.727C180.403,256.724 180.425,256.722 180.447,256.722C180.709,256.722 180.925,256.938 180.925,257.2C180.925,257.224 180.923,257.248 180.92,257.271L180.92,267.823C180.92,269.957 180.661,270.239 178.287,270.239C178.047,270.239 177.229,270.2 175.873,270.159C175.514,270.139 175.314,269.959 175.314,269.615C175.294,269.272 175.494,269.091 175.873,269.115C177.149,269.155 177.873,269.215 178.068,269.215C178.926,269.215 178.946,269.195 178.946,267.886L178.946,265.57L167.9,265.57C167.631,267.222 167.005,268.796 166.064,270.181C165.986,270.342 165.821,270.444 165.643,270.444C165.516,270.444 165.394,270.393 165.306,270.302L164.727,269.819C164.581,269.72 164.493,269.555 164.493,269.378C164.493,269.269 164.526,269.163 164.588,269.074C165.805,267.06 166.288,264.664 166.288,260.516L166.288,258.885L165.451,259.569C165.37,259.664 165.25,259.719 165.125,259.719C164.935,259.719 164.766,259.591 164.713,259.408L164.513,259.008C164.359,258.758 164.43,258.428 164.672,258.262C166.551,256.655 168.044,254.645 169.042,252.383C169.14,252.108 169.44,251.956 169.72,252.04L170.458,252.181C170.696,252.189 170.888,252.387 170.888,252.626C170.888,252.711 170.864,252.794 170.818,252.866" style="fill:rgb(118,187,138);fill-rule:nonzero;"/>
        </g>
        <g transform="matrix(1,0,0,1,-64.093,-65.938)">
            <path d="M226.946,256.416C227.864,256.839 228.582,257.242 229.101,257.544C229.58,257.15 230.021,256.712 230.417,256.235C230.059,255.994 229.66,255.691 229.161,255.349C228.454,255.767 227.713,256.124 226.946,256.416M231.296,253.657C230.944,254.008 230.571,254.338 230.179,254.644L231.256,255.389C231.412,255.469 231.511,255.63 231.511,255.806C231.511,255.939 231.455,256.065 231.356,256.154L231.116,256.454L231.136,256.474C231.515,256.615 231.595,256.917 231.315,257.199C230.962,257.563 230.582,257.899 230.178,258.206L231.255,258.951C231.408,259.034 231.504,259.195 231.504,259.37C231.504,259.501 231.45,259.626 231.355,259.716L231.295,259.796C231.203,259.94 231.044,260.027 230.873,260.027C230.739,260.027 230.61,259.973 230.516,259.877C229.916,259.434 229.459,259.112 229.16,258.89C228.503,259.281 227.816,259.618 227.105,259.897C226.855,260.017 226.554,259.959 226.367,259.755C226.107,259.514 226.187,259.255 226.567,259.091C227.101,258.839 227.621,258.557 228.123,258.245C227.544,257.903 227.065,257.621 226.686,257.44C226.347,257.258 226.267,256.997 226.506,256.695L226.666,256.495L226.426,256.274C226.126,255.993 226.186,255.69 226.566,255.529C227.108,255.293 227.629,255.01 228.122,254.684C227.543,254.341 227.064,254.06 226.685,253.879C226.5,253.819 226.374,253.645 226.374,253.451C226.374,253.332 226.421,253.218 226.505,253.134C226.595,253.003 226.745,252.925 226.904,252.925C227.004,252.925 227.101,252.956 227.183,253.013C227.839,253.299 228.479,253.621 229.098,253.98C229.465,253.681 229.812,253.358 230.136,253.013C230.303,252.78 230.618,252.702 230.874,252.832L231.113,252.932C231.492,253.093 231.572,253.375 231.293,253.657M221.393,254.1C222.53,253.979 223.867,253.737 225.403,253.435C225.444,253.425 225.486,253.419 225.529,253.419C225.811,253.419 226.043,253.651 226.043,253.933C226.043,254.187 225.854,254.405 225.603,254.442C224.703,254.623 223.787,254.764 222.909,254.905L222.949,255.993L225.442,255.993C225.464,255.99 225.486,255.988 225.508,255.988C225.77,255.988 225.986,256.204 225.986,256.466C225.986,256.49 225.984,256.513 225.981,256.536C225.981,256.697 225.802,256.777 225.442,256.777L223,256.777L223.06,258.247L225.453,258.247C225.475,258.244 225.496,258.243 225.518,258.243C225.781,258.243 225.997,258.459 225.997,258.722C225.997,258.745 225.995,258.768 225.992,258.791C225.992,258.952 225.813,259.052 225.453,259.052L223.1,259.052L223.16,260.583L234.692,260.583L234.732,259.052L232.398,259.052C232.376,259.055 232.354,259.057 232.332,259.057C232.07,259.057 231.854,258.841 231.854,258.579C231.854,258.555 231.856,258.532 231.859,258.509C231.859,258.347 232.038,258.247 232.398,258.247L234.772,258.247L234.812,256.777L232.398,256.777C232.376,256.78 232.354,256.782 232.332,256.782C232.07,256.782 231.854,256.566 231.854,256.304C231.854,256.28 231.856,256.256 231.859,256.233C231.859,256.072 232.039,255.991 232.398,255.992L234.851,255.992L234.911,254.582L232.277,254.582C232.255,254.585 232.234,254.586 232.212,254.586C231.95,254.586 231.734,254.371 231.734,254.108C231.734,254.085 231.736,254.061 231.739,254.038C231.739,253.777 231.918,253.638 232.277,253.638L236.407,253.638C236.427,253.635 236.448,253.634 236.468,253.634C236.734,253.634 236.953,253.853 236.953,254.119C236.953,254.147 236.951,254.175 236.946,254.202L236.667,260.585L237.305,260.585C237.327,260.582 237.349,260.58 237.371,260.58C237.633,260.58 237.849,260.796 237.849,261.058C237.849,261.082 237.847,261.106 237.844,261.129L237.844,263.344C237.847,263.367 237.849,263.39 237.849,263.414C237.849,263.676 237.633,263.892 237.371,263.892C237.349,263.892 237.327,263.89 237.305,263.887L236.405,263.887C236.383,263.89 236.361,263.892 236.339,263.892C236.077,263.892 235.861,263.676 235.861,263.414C235.861,263.39 235.863,263.367 235.866,263.344L235.866,261.511L221.978,261.511L221.978,263.344C221.981,263.367 221.983,263.39 221.983,263.414C221.983,263.676 221.767,263.892 221.505,263.892C221.483,263.892 221.461,263.89 221.439,263.887L220.539,263.887C220.517,263.89 220.495,263.892 220.473,263.892C220.211,263.892 219.995,263.676 219.995,263.414C219.995,263.39 219.997,263.367 220,263.344L220,261.129C219.997,261.106 219.995,261.082 219.995,261.058C219.995,260.796 220.211,260.58 220.473,260.58C220.495,260.58 220.517,260.582 220.539,260.585L221.158,260.585L220.899,254.685C220.895,254.659 220.893,254.633 220.893,254.607C220.893,254.329 221.121,254.101 221.399,254.101C221.399,254.101 221.399,254.101 221.399,254.101M234.786,263.401C234.806,263.668 234.665,263.922 234.427,264.046C232.907,264.977 231.312,265.78 229.659,266.446L237.4,266.446C237.422,266.443 237.444,266.441 237.466,266.441C237.728,266.441 237.944,266.657 237.944,266.919C237.944,266.943 237.942,266.967 237.939,266.99C237.939,267.29 237.76,267.453 237.4,267.453L230.238,267.453L230.238,269.506C230.238,270.674 229.938,270.876 227.625,270.876C226.825,270.876 225.909,270.856 224.851,270.795C224.847,270.795 224.843,270.795 224.839,270.795C224.55,270.795 224.313,270.558 224.313,270.269C224.313,270.263 224.313,270.257 224.313,270.251C224.293,269.909 224.492,269.727 224.872,269.751C226.172,269.791 227.007,269.851 227.406,269.851C228.284,269.851 228.184,269.951 228.184,269.025L228.184,267.455L220.443,267.455C220.421,267.458 220.399,267.46 220.377,267.46C220.115,267.46 219.899,267.244 219.899,266.982C219.899,266.958 219.901,266.934 219.904,266.911C219.904,266.611 220.083,266.448 220.443,266.448L228.184,266.448L228.184,266.065C228.181,266.042 228.179,266.018 228.179,265.994C228.179,265.732 228.395,265.516 228.657,265.516C228.679,265.516 228.701,265.518 228.723,265.521L229.282,265.521C230.433,265.034 231.558,264.49 232.654,263.89L223.596,263.89C223.574,263.893 223.553,263.894 223.531,263.894C223.269,263.894 223.053,263.679 223.053,263.416C223.053,263.393 223.055,263.37 223.058,263.347C223.058,263.105 223.237,262.964 223.596,262.964L234.25,262.964C234.61,262.964 234.789,263.125 234.789,263.407" style="fill:rgb(118,187,138);fill-rule:nonzero;"/>
        </g>
        <g transform="matrix(1,0,0,1,-97.07,-66.02)">
            <path d="M292.244,258.713C292.246,258.732 292.247,258.75 292.247,258.769C292.247,259.028 292.034,259.241 291.775,259.241C291.752,259.241 291.728,259.24 291.705,259.236L286.178,259.236C286.156,259.239 286.135,259.24 286.113,259.24C285.85,259.24 285.634,259.024 285.634,258.761C285.634,258.739 285.636,258.716 285.639,258.693C285.639,258.371 285.819,258.21 286.178,258.21L291.7,258.21C292.059,258.21 292.239,258.391 292.239,258.71M294.573,255.69L294.573,258.39C294.576,258.413 294.578,258.436 294.578,258.46C294.578,258.722 294.362,258.938 294.1,258.938C294.078,258.938 294.056,258.936 294.034,258.933L293.116,258.933C293.094,258.936 293.072,258.938 293.05,258.938C292.788,258.938 292.572,258.722 292.572,258.46C292.572,258.436 292.574,258.413 292.577,258.39L292.577,256.175L285.255,256.175L285.255,258.39C285.258,258.413 285.26,258.436 285.26,258.46C285.26,258.722 285.044,258.938 284.782,258.938C284.76,258.938 284.738,258.936 284.716,258.933L283.858,258.933C283.836,258.936 283.814,258.938 283.792,258.938C283.53,258.938 283.314,258.722 283.314,258.46C283.314,258.436 283.316,258.413 283.319,258.39L283.319,255.69C283.316,255.667 283.314,255.644 283.314,255.621C283.314,255.358 283.53,255.142 283.793,255.142C283.815,255.142 283.836,255.143 283.858,255.146L287.709,255.146L287.709,253.455C287.706,253.432 287.704,253.408 287.704,253.384C287.704,253.122 287.92,252.906 288.182,252.906C288.204,252.906 288.226,252.908 288.248,252.911L289.206,252.911C289.228,252.908 289.25,252.906 289.272,252.906C289.534,252.906 289.75,253.122 289.75,253.384C289.75,253.408 289.748,253.432 289.745,253.455L289.745,255.146L294.034,255.146C294.056,255.143 294.077,255.142 294.099,255.142C294.362,255.142 294.578,255.358 294.578,255.621C294.578,255.644 294.576,255.667 294.573,255.69M294.293,262.416C294.296,262.439 294.298,262.462 294.298,262.485C294.298,262.748 294.082,262.963 293.82,262.963C293.798,262.963 293.777,262.962 293.755,262.959L291.022,262.959L291.022,268.577C291.022,269.503 290.883,269.483 292,269.483C292.638,269.483 292.738,269.483 292.938,268.939C293.082,268.094 293.149,267.238 293.138,266.381C293.158,265.998 293.358,265.817 293.717,265.858L294.495,265.938C294.773,265.939 295.001,266.168 295.001,266.446C295.001,266.471 294.999,266.497 294.995,266.522C294.975,267.122 294.975,267.488 294.915,268.092C294.995,268.868 294.733,269.641 294.197,270.207C293.922,270.367 293.614,270.463 293.297,270.489C292.846,270.532 292.393,270.552 291.94,270.549C289.446,270.549 289.047,270.307 289.047,269.079L289.047,262.957L287.89,262.957C287.85,267.166 286.553,269.119 282.463,270.69C282.2,270.82 281.876,270.711 281.745,270.448L281.685,270.327C281.617,270.246 281.58,270.144 281.58,270.039C281.58,269.832 281.724,269.65 281.925,269.602C284.858,268.414 285.875,266.723 285.955,262.957L284.1,262.957C284.078,262.96 284.056,262.962 284.034,262.962C283.772,262.962 283.556,262.746 283.556,262.484C283.556,262.46 283.558,262.437 283.561,262.414C283.559,262.395 283.558,262.376 283.558,262.357C283.558,262.098 283.771,261.885 284.03,261.885C284.053,261.885 284.077,261.886 284.1,261.89L293.756,261.89C293.779,261.887 293.802,261.885 293.825,261.885C294.084,261.885 294.297,262.098 294.297,262.357C294.297,262.376 294.296,262.395 294.294,262.414M283.042,255.245C281.984,257.964 281.506,258.93 281.127,259.897C282.302,261.085 282.951,262.697 282.927,264.367C282.927,266.059 282.127,266.925 280.134,266.925C280.124,266.926 280.115,266.926 280.105,266.926C279.835,266.926 279.609,266.712 279.595,266.442C279.535,266.12 279.715,265.918 280.095,265.918L279.935,265.918C280.794,265.918 281.135,265.556 281.135,264.066C281.132,262.662 280.614,261.307 279.679,260.26C279.49,260.059 279.449,259.758 279.579,259.515C280.29,257.967 280.896,256.372 281.394,254.743L279.02,254.743L279.02,270.269C279.023,270.292 279.025,270.315 279.025,270.339C279.025,270.601 278.809,270.817 278.547,270.817C278.525,270.817 278.503,270.815 278.481,270.812L277.8,270.812C277.778,270.815 277.756,270.817 277.734,270.817C277.472,270.817 277.256,270.601 277.256,270.339C277.256,270.315 277.258,270.292 277.261,270.269L277.261,254.323C277.258,254.3 277.256,254.277 277.256,254.254C277.256,253.991 277.472,253.775 277.735,253.775C277.757,253.775 277.778,253.776 277.8,253.779L282.648,253.779C282.67,253.776 282.692,253.774 282.714,253.774C282.976,253.774 283.192,253.99 283.192,254.252C283.192,254.276 283.19,254.3 283.187,254.323L283.187,254.564C283.187,254.799 283.139,255.032 283.047,255.249" style="fill:rgb(118,187,138);fill-rule:nonzero;"/>
        </g>
    </g>
</svg>
