<?xml version="1.0" encoding="utf-8"?>
<!-- Generator: Adobe Illustrator 24.0.1, SVG Export Plug-In . SVG Version: 6.00 Build 0)  -->
<svg version="1.1" id="圖層_1" xmlns="http://www.w3.org/2000/svg" xmlns:xlink="http://www.w3.org/1999/xlink" x="0px" y="0px"
	 viewBox="0 0 36 36" style="enable-background:new 0 0 36 36;" xml:space="preserve">
<style type="text/css">
	.st0{fill:none;}
	.st1{fill:#AA0601;}
</style>
<g>
	<rect class="st0" width="36" height="36"/>
</g>
<g>
	<g>
		<polygon class="st1" points="28.5,13.5 30.4,9.4 34.5,7.5 30.4,5.6 28.5,1.5 26.6,5.6 22.5,7.5 26.6,9.4 		"/>
		<polygon class="st1" points="28.5,22.5 26.6,26.6 22.5,28.5 26.6,30.4 28.5,34.5 30.4,30.4 34.5,28.5 30.4,26.6 		"/>
		<path class="st1" d="M17.2,14.2L13.5,6l-3.8,8.2L1.5,18l8.2,3.8l3.8,8.2l3.8-8.2l8.2-3.8L17.2,14.2z M15,19.5l-1.5,3.3L12,19.5
			L8.7,18l3.3-1.5l1.5-3.3l1.5,3.3l3.3,1.5L15,19.5z"/>
	</g>
</g>
</svg>
