<?xml version="1.0" encoding="UTF-8" standalone="no"?><!DOCTYPE svg PUBLIC "-//W3C//DTD SVG 1.1//EN" "http://www.w3.org/Graphics/SVG/1.1/DTD/svg11.dtd"><svg width="100%" height="100%" viewBox="0 0 5 6" version="1.1" xmlns="http://www.w3.org/2000/svg" xmlns:xlink="http://www.w3.org/1999/xlink" xml:space="preserve" xmlns:serif="http://www.serif.com/" style="fill-rule:evenodd;clip-rule:evenodd;stroke-linejoin:round;stroke-miterlimit:2;"><g id="Artboard1"><rect x="0" y="0" width="4.991" height="5.035" style="fill:none;"/><g><g><path d="M17.962,0.001l-17.962,0.011l0.011,17.973l17.962,-0.011l-0.011,-17.973Z" style="fill:none;"/></g><g><g><path d="M4.14,1.855l0.285,-0.629l0.628,-0.286l-0.629,-0.285l-0.286,-0.629l-0.285,0.629l-0.628,0.286l0.628,0.285l0.287,0.629Z" style="fill:#aa0601;fill-rule:nonzero;"/><path d="M4.14,3.226l-0.285,0.629l-0.628,0.286l0.628,0.285l0.286,0.629l0.286,-0.629l0.628,-0.286l-0.629,-0.286l-0.286,-0.628Z" style="fill:#aa0601;fill-rule:nonzero;"/><path d="M2.425,1.97l-0.572,-1.257l-0.57,1.258l-1.257,0.572l1.257,0.571l0.572,1.256l0.571,-1.257l1.257,-0.572l-1.258,-0.571Zm-0.344,0.798l-0.226,0.498l-0.227,-0.498l-0.498,-0.226l0.498,-0.226l0.226,-0.499l0.226,0.498l0.499,0.226l-0.498,0.227Z" style="fill:#aa0601;fill-rule:nonzero;"/></g></g></g></g></svg>