<?xml version="1.0" encoding="UTF-8" standalone="no"?>
<!DOCTYPE svg PUBLIC "-//W3C//DTD SVG 1.1//EN" "http://www.w3.org/Graphics/SVG/1.1/DTD/svg11.dtd">
<svg width="100%" height="100%" viewBox="0 0 18 18" version="1.1" xmlns="http://www.w3.org/2000/svg" xmlns:xlink="http://www.w3.org/1999/xlink" xml:space="preserve" xmlns:serif="http://www.serif.com/" style="fill-rule:evenodd;clip-rule:evenodd;stroke-linejoin:round;stroke-miterlimit:2;">
    <g transform="matrix(0.314209,-0.00019324,0.00019324,0.314209,-1.29811e-20,0.0116056)">
        <rect x="0" y="0" width="18" height="18" style="fill:none;"/>
    </g>
    <g transform="matrix(0.246031,-0.00015131,0.00015131,0.246031,3.87656e-05,0.00432061)">
        <g>
            <path d="M19,9L20.25,6.25L23,5L20.25,3.75L19,1L17.75,3.75L15,5L17.75,6.25L19,9Z" style="fill:rgb(170,6,1);fill-rule:nonzero;"/>
            <path d="M19,15L17.75,17.75L15,19L17.75,20.25L19,23L20.25,20.25L23,19L20.25,17.75L19,15Z" style="fill:rgb(170,6,1);fill-rule:nonzero;"/>
            <path d="M11.5,9.5L9,4L6.5,9.5L1,12L6.5,14.5L9,20L11.5,14.5L17,12L11.5,9.5ZM9.99,12.99L9,15.17L8.01,12.99L5.83,12L8.01,11.01L9,8.83L9.99,11.01L12.17,12L9.99,12.99Z" style="fill:rgb(170,6,1);fill-rule:nonzero;"/>
        </g>
    </g>
</svg>
